<?xml version="1.0" encoding="iso-8859-1"?>
<!-- Generator: Adobe Illustrator 18.0.0, SVG Export Plug-In . SVG Version: 6.00 Build 0)  -->
<!DOCTYPE svg PUBLIC "-//W3C//DTD SVG 1.1//EN" "http://www.w3.org/Graphics/SVG/1.1/DTD/svg11.dtd">
<svg version="1.1" id="Capa_1" xmlns="http://www.w3.org/2000/svg" xmlns:xlink="http://www.w3.org/1999/xlink" x="0px" y="0px"
	 viewBox="0 0 64.91 64.91" style="enable-background:new 0 0 64.91 64.91;" xml:space="preserve">
<path style="fill:#ffffff;" d="M46.333,56.402c0,0.829-0.672,1.5-1.5,1.5h-30.75c-0.828,0-1.5-0.671-1.5-1.5s0.672-1.5,1.5-1.5
	h30.75C45.661,54.902,46.333,55.573,46.333,56.402z M64.236,16.573c-0.742,0.742-1.923,0.869-3.311,0.372
	c-0.777,0.895-2.788,3.209-8.005,9.207h4.496c0.828,0,1.5,0.671,1.5,1.5s-0.672,1.5-1.5,1.5H1.5c-0.828,0-1.5-0.671-1.5-1.5
	s0.672-1.5,1.5-1.5h36.049c12.33-10.727,16.201-14.093,17.428-15.157c-0.496-1.386-0.371-2.569,0.371-3.311
	c1.406-1.406,4.299-0.563,6.875,2.014c1.099,1.098,1.94,2.344,2.369,3.508C65.298,15.121,64.672,16.138,64.236,16.573z
	 M62.716,13.899c-0.327-0.885-1.021-1.901-1.907-2.786c-1.967-1.967-3.749-2.312-4.047-2.014c-0.116,0.116-0.192,0.694,0.316,1.739
	c0.205,0.419,0.092,0.925-0.272,1.218c-0.172,0.146-6.201,5.389-16.21,14.097h9.673c5.889-6.769,9.481-10.9,9.61-11.053
	c0.297-0.349,0.795-0.456,1.205-0.256c1.042,0.508,1.62,0.433,1.737,0.317C62.923,15.058,62.983,14.627,62.716,13.899z
	 M58.416,30.888c0,9.207-4.231,17.658-11.608,23.187c-0.173,0.129-0.384,0.2-0.6,0.2l-33.499,0.001c-0.216,0-0.427-0.07-0.6-0.2
	C4.731,48.547,0.5,40.095,0.5,30.888c0-0.552,0.447-1,1-1h55.916C57.969,29.888,58.416,30.336,58.416,30.888z M56.398,31.888H2.518
	c0.29,8.072,4.087,15.441,10.527,20.388l32.827-0.001C52.313,47.329,56.108,39.96,56.398,31.888z"/>
<g>
</g>
<g>
</g>
<g>
</g>
<g>
</g>
<g>
</g>
<g>
</g>
<g>
</g>
<g>
</g>
<g>
</g>
<g>
</g>
<g>
</g>
<g>
</g>
<g>
</g>
<g>
</g>
<g>
</g>
</svg>
