<?xml version="1.0" encoding="utf-8"?>
<!-- Generator: Adobe Illustrator 13.0.2, SVG Export Plug-In . SVG Version: 6.00 Build 14948)  -->
<!DOCTYPE svg PUBLIC "-//W3C//DTD SVG 1.1//EN" "http://www.w3.org/Graphics/SVG/1.1/DTD/svg11.dtd">
<svg version="1.1" id="Layer_1" xmlns="http://www.w3.org/2000/svg" xmlns:xlink="http://www.w3.org/1999/xlink" x="0px" y="0px"
	 width="432.994px" height="574.056px" viewBox="0 0 432.994 574.056" enable-background="new 0 0 432.994 574.056"
	 xml:space="preserve">
<g>
	<path fill="#FFFFFF" d="M404.165,196.618c12.529-27.696,19.406-57.475,19.402-84.489c-0.095-39.892-14.646-72.94-47.046-87.041
		c-12.635-5.493-25.622-7.627-38.726-7.627c-21.723-0.015-43.711,5.934-63.942,12.031c-19.36,5.787-36.95,11.8-52.023,12.39
		c-0.494,0.228-1.035,0.374-1.608,0.417c-14.406,1.088-41.548,5.39-63.455,5.404c-7.524-0.01-14.458-0.493-20.34-1.923
		c-5.628-1.411-10.695-3.651-13.695-8.325c-0.035-0.054-0.069-0.108-0.103-0.163c-0.011-0.018-0.022-0.034-0.032-0.051
		c-0.047-0.076-0.093-0.151-0.139-0.228c-0.425-0.741-0.626-1.548-0.626-2.345c0.001-1.632,0.851-3.218,2.367-4.092
		c2.256-1.294,5.141-0.52,6.436,1.741c0.011,0.021,0.021,0.042,0.033,0.062c0.002,0.006,0.005,0.01,0.009,0.016
		c0.005,0.011,0.012,0.022,0.019,0.034c0.646,1.12,2.879,2.68,7.005,3.669c4.184,1.041,9.936,1.511,16.381,1.501
		c10.733,0.012,23.203-1.22,34.703-2.478c-8.323-2.942-17.088-6.456-26.255-9.888c-21.372-8.078-44.676-15.817-67.892-15.798
		c-10.355,0-20.692,1.514-30.958,5.185l-0.688,0.487l-1.097,0.572c-18.07,6.628-30.979,18.975-39.64,35.319
		C13.618,67.33,9.424,87.708,9.43,109.746c-0.005,24.294,5.085,50.569,14.616,75.501c27.616,72.386,75.582,286.496,85.17,330.605
		c2.753,12.857,12.388,24.538,24.557,32.901c12.107,8.379,26.635,13.281,37.818,13.237c5.484,0.011,10.058-1.147,13.262-3.212
		c3.194-2.098,5.296-4.913,6.261-9.578c0.554-2.783,0.831-6.483,0.827-10.796c0.056-26.813-10.376-75.551-10.419-108.714
		c0.004-7.424,0.517-14.123,1.909-19.879c1.408-5.715,3.683-10.711,7.905-14.078c2.764-2.207,6.339-3.415,10.111-3.415
		c0.042,0,0.086,0,0.13,0c0.243,0,0.487,0.004,0.61,0.016l11.779,0.356c6.778,0.136,12.44,3.938,16.123,9.259
		c3.771,5.333,6.191,12.21,7.965,20.162c3.499,15.893,4.245,36.275,4.259,56.652c0,17.804-0.604,35.568-0.604,49.931
		c-0.005,9.031,0.249,16.753,0.98,22.042c0.731,5.066,2.755,8.173,5.756,10.415c3.018,2.214,7.328,3.477,12.567,3.473
		c9.911,0.037,22.704-4.65,33.414-13.548c10.741-8.896,19.443-21.78,22.121-38.069C323.459,471.202,372.175,267.54,404.165,196.618z
		 M250.711,79.019c8.296,0,15.017,10.615,15.017,23.71c0,13.098-6.721,23.714-15.017,23.714s-15.017-10.616-15.017-23.714
		C235.695,89.634,242.416,79.019,250.711,79.019z M217.837,117.138c1.042,0,2.117,0.083,3.229,0.258
		c12.732,2.238,20.945,16.365,24.491,26.044c0.434,1.227-0.212,2.574-1.438,3.008c-1.233,0.433-2.579-0.208-3.013-1.439
		c-3.046-8.932-11.429-21.721-20.78-22.953c-0.875-0.139-1.702-0.204-2.49-0.204c-5.846,0.014-9.837,3.483-13.379,8.881
		c-3.475,5.356-6.048,12.323-8.706,18.039c-0.398,0.857-1.248,1.363-2.134,1.363c-0.335,0-0.675-0.072-0.999-0.224
		c-1.18-0.549-1.692-1.952-1.14-3.133c2.547-5.439,5.154-12.613,9.02-18.606C204.3,122.217,209.818,117.125,217.837,117.138z
		 M185.691,79.019c8.295,0,15.018,10.615,15.018,23.71c0,13.098-6.723,23.714-15.018,23.714c-8.294,0-15.017-10.616-15.017-23.714
		C170.674,89.634,177.397,79.019,185.691,79.019z M285.176,276.816c-18.117,57.807-40.965,83.612-71.925,83.612
		c-31.307,0-53.609-35.389-68.683-74.23c-17.626-45.423-25.357-95.569-25.926-99.391c-0.002-0.004,0-0.011,0-0.019
		c-1.248-0.746-2.388-1.451-3.477-2.129c-4.821-3.014-8.096-5.321-9.492-6.343c-4.786,5.942-6.541,12.716-6.679,13.28
		c-0.29,1.198-1.306,1.871-2.266,1.51s-1.503-1.616-1.215-2.808c0.079-0.33,8.139-32.237,37.474-24.308
		c0.624,0.172,1.071,0.734,1.283,1.422c0.121,0.394,0.188,0.824,0.109,1.271c-0.216,1.219-1.183,1.995-2.163,1.727
		c-0.5-0.134-0.954-0.19-1.439-0.301c-10.156-2.309-17.281,0.661-22.164,5.1c1.862,1.326,5.129,3.562,9.58,6.299
		c30.875,18.969,119.08,62.036,196.463-6.766c-5.106-4.38-12.486-7.19-23.059-4.332c-0.981,0.268-1.949-0.508-2.163-1.727
		c-0.215-1.223,0.407-2.427,1.39-2.693c29.338-7.93,37.396,23.978,37.476,24.308c0.289,1.192-0.254,2.447-1.217,2.808
		c-0.959,0.361-1.976-0.312-2.265-1.51c-0.144-0.584-2.012-7.818-7.189-13.903c-4.057,3.656-8.153,6.904-12.261,9.971
		c0.063,0.324,0.086,0.66,0.026,1.006C299.304,223.798,292.64,253.005,285.176,276.816z"/>
	<path d="M380.283,16.442c-13.999-6.094-28.365-8.416-42.487-8.412c-23.426,0.01-46.248,6.301-66.662,12.431
		c-20.363,6.174-38.504,12.099-51.431,12.033c-0.414,0-0.832-0.004-1.246-0.013c-0.059-0.002-0.126-0.004-0.199-0.005
		c-0.834,0.003-1.727,0.025-2.673,0.064c-13.087-1.644-30.438-8.799-49.729-16.131C144.243,8.271,119.939,0.019,94.636,0
		C83.152,0,71.462,1.722,59.857,5.972l-1.088,0.572l-0.696,0.487c-20.06,7.48-34.738,21.658-44.16,39.564
		C4.372,64.684,0.005,86.529,0,109.746c0.005,25.604,5.325,52.919,15.237,78.864c27.066,70.764,75.289,285.478,84.766,329.241
		c3.527,16.094,14.907,29.342,28.422,38.671c13.575,9.311,29.397,14.861,43.166,14.902c6.747-0.009,13.102-1.363,18.347-4.705
		c5.249-3.31,9.11-8.79,10.433-15.69c0.727-3.705,1-7.924,1.004-12.624c-0.056-28.642-10.47-77.151-10.424-108.714
		c-0.023-9.282,0.958-17.014,2.937-21.727c0.976-2.369,2.125-3.917,3.279-4.823c1.178-0.896,2.389-1.369,4.41-1.393
		c0.066,0,0.132,0,0.21,0.004l11.897,0.361c3.542,0.169,6.009,1.629,8.72,5.301c3.973,5.476,6.88,15.875,8.435,28.564
		c1.599,12.703,2.045,27.7,2.041,42.785c0,17.6-0.603,35.318-0.603,49.931c0.007,9.217,0.226,17.169,1.066,23.323
		c0.937,7.196,4.442,13.07,9.537,16.746c5.079,3.702,11.431,5.288,18.13,5.292c12.718-0.037,27.137-5.596,39.422-15.713
		c12.254-10.124,22.334-25.019,25.421-43.81c6.585-40.455,55.752-245.33,86.904-314.032c13.027-28.821,20.232-59.768,20.236-88.373
		C433.088,70.214,417.167,32.485,380.283,16.442z M294.424,551.077c-10.71,8.897-23.503,13.585-33.414,13.548
		c-5.239,0.004-9.55-1.259-12.567-3.473c-3.001-2.242-5.024-5.349-5.756-10.415c-0.731-5.289-0.985-13.011-0.98-22.042
		c0-14.362,0.604-32.127,0.604-49.931c-0.014-20.377-0.76-40.76-4.259-56.652c-1.773-7.952-4.194-14.829-7.965-20.162
		c-3.683-5.32-9.344-9.123-16.123-9.259l-11.779-0.356c-0.123-0.012-0.367-0.016-0.61-0.016c-0.043,0-0.087,0-0.13,0
		c-3.771,0-7.347,1.208-10.111,3.415c-4.222,3.367-6.497,8.363-7.905,14.078c-1.392,5.756-1.904,12.455-1.909,19.879
		c0.042,33.163,10.475,81.9,10.419,108.714c0.004,4.312-0.272,8.013-0.827,10.796c-0.965,4.665-3.067,7.48-6.261,9.578
		c-3.204,2.064-7.778,3.223-13.262,3.212c-11.183,0.044-25.711-4.858-37.818-13.237c-12.168-8.363-21.804-20.044-24.557-32.901
		c-9.588-44.109-57.554-258.219-85.17-330.605C14.515,160.314,9.424,134.04,9.43,109.746c-0.005-22.038,4.188-42.416,12.824-58.75
		c8.66-16.344,21.57-28.691,39.64-35.319l1.097-0.572l0.688-0.487c10.266-3.671,20.603-5.185,30.958-5.185
		c23.216-0.019,46.521,7.721,67.892,15.798c9.167,3.432,17.932,6.946,26.255,9.888c-11.5,1.258-23.969,2.489-34.703,2.478
		c-6.445,0.01-12.197-0.46-16.381-1.501c-4.126-0.989-6.359-2.549-7.005-3.669c-0.006-0.012-0.013-0.023-0.019-0.034
		c-0.003-0.005-0.006-0.01-0.009-0.016c-0.012-0.021-0.022-0.042-0.033-0.062c-1.295-2.261-4.18-3.035-6.436-1.741
		c-1.516,0.874-2.366,2.46-2.367,4.092c0,0.797,0.201,1.604,0.626,2.345c0.046,0.077,0.092,0.152,0.139,0.228
		c0.01,0.018,0.021,0.034,0.032,0.051c0.034,0.055,0.068,0.109,0.103,0.163c3,4.674,8.067,6.914,13.695,8.325
		c5.883,1.431,12.816,1.914,20.34,1.923c21.907-0.014,49.048-4.316,63.455-5.404c0.573-0.044,1.114-0.189,1.608-0.417
		c15.073-0.59,32.663-6.603,52.023-12.39c20.231-6.097,42.22-12.046,63.942-12.031c13.104,0,26.091,2.134,38.726,7.627
		c32.4,14.101,46.951,47.148,47.046,87.041c0.004,27.015-6.873,56.793-19.402,84.489c-31.989,70.922-80.705,274.584-87.619,316.39
		C313.868,529.296,305.166,542.181,294.424,551.077z"/>
	<ellipse cx="185.691" cy="102.731" rx="15.018" ry="23.712"/>
	<ellipse cx="250.711" cy="102.731" rx="15.017" ry="23.712"/>
	<path d="M191.479,146.78c-0.553,1.181-0.041,2.583,1.14,3.133c0.324,0.151,0.663,0.224,0.999,0.224
		c0.886,0,1.736-0.506,2.134-1.363c2.658-5.716,5.231-12.683,8.706-18.039c3.542-5.398,7.534-8.867,13.379-8.881
		c0.788,0,1.615,0.065,2.49,0.204c9.351,1.231,17.734,14.021,20.78,22.953c0.434,1.231,1.779,1.873,3.013,1.439
		c1.226-0.435,1.871-1.781,1.438-3.008c-3.546-9.679-11.759-23.806-24.491-26.044c-1.112-0.175-2.188-0.258-3.229-0.258
		c-8.019-0.014-13.537,5.079-17.338,11.035C196.633,134.167,194.026,141.34,191.479,146.78z"/>
	<path fill="#ED1C24" d="M206.785,304.687c5.246,3.113,9.746,7.593,12.726,13.994c0.503,1.082,0.207,2.466-0.664,3.092
		c-0.867,0.626-1.979,0.254-2.481-0.825c-12.589-27.052-58.507-15.718-59.003-15.593c13.92,28.337,32.317,50.55,55.889,50.55
		c21.353,0,38.715-13.259,53.327-42.024l-17.885-13.354C234.865,290.21,214.375,300.282,206.785,304.687z"/>
	<path d="M317.629,177.693c5.178,6.085,7.046,13.319,7.189,13.903c0.289,1.198,1.306,1.871,2.265,1.51
		c0.963-0.361,1.506-1.616,1.217-2.808c-0.079-0.33-8.138-32.237-37.476-24.308c-0.982,0.266-1.604,1.47-1.39,2.693
		c0.214,1.219,1.182,1.995,2.163,1.727c10.572-2.858,17.952-0.048,23.059,4.332c-77.384,68.802-165.589,25.735-196.463,6.766
		c-4.45-2.737-7.718-4.973-9.58-6.299c4.883-4.438,12.008-7.409,22.164-5.1c0.486,0.11,0.939,0.167,1.439,0.301
		c0.98,0.268,1.947-0.508,2.163-1.727c0.079-0.446,0.012-0.876-0.109-1.271c-0.212-0.688-0.659-1.25-1.283-1.422
		c-29.335-7.93-37.396,23.978-37.474,24.308c-0.288,1.192,0.255,2.447,1.215,2.808s1.976-0.312,2.266-1.51
		c0.138-0.564,1.893-7.338,6.679-13.28c1.396,1.021,4.671,3.329,9.492,6.343c1.089,0.679,2.229,1.384,3.477,2.129
		c0,0.007-0.002,0.014,0,0.019c0.569,3.821,8.3,53.968,25.926,99.391c15.074,38.842,37.376,74.23,68.683,74.23
		c30.96,0,53.808-25.806,71.925-83.612c7.464-23.811,14.128-53.018,20.219-88.146c0.06-0.346,0.037-0.682-0.026-1.006
		C309.476,184.597,313.573,181.349,317.629,177.693z M213.251,355.905c-23.572,0-41.969-22.213-55.889-50.55
		c0.497-0.125,46.415-11.459,59.003,15.593c0.502,1.079,1.615,1.451,2.481,0.825c0.87-0.626,1.167-2.01,0.664-3.092
		c-2.98-6.401-7.48-10.881-12.726-13.994c7.59-4.405,28.08-14.477,41.908-4.16l17.885,13.354
		C251.966,342.646,234.604,355.905,213.251,355.905z"/>
</g>
</svg>
